<?xml version="1.0" encoding="UTF-8"?>
<svg id="Layer_2" xmlns="http://www.w3.org/2000/svg" viewBox="0 0 561.41 307.28">
    <defs>
        <style>
            .cls-1 {
                fill: currentColor;
            }
            .cls-2 {
                fill: #64da42;
            }
        </style>
    </defs>
    <g id="Layer_1-2">
        <g>
            <path class="cls-1"
                  d="M372.5,180.08c-16.96,0-32.71,6.4-44.36,18.02-11.83,11.79-18.34,27.98-18.34,45.58,0,18.64,6.37,34.65,18.41,46.3,11.39,11.01,27.12,17.08,44.29,17.08,21.42,0,41.68-9.13,52.88-23.83l3.73-4.89-17.73-14.18-3.91,5.17c-6.38,8.45-20.76,14.35-34.97,14.35-16.08,0-33.05-8.88-37.79-28.52h98.33l.56-5.68c2.04-20.73-2.79-38.2-13.96-50.52-11.03-12.16-27.77-18.86-47.14-18.86Zm-37.78,52.81c4.33-18.26,18.81-30.09,37.78-30.09,22.04,0,35.67,10.87,38.21,30.09h-75.99Z"/>
            <path class="cls-1"
                  d="M558.77,181.87l-.33,.39c-7.52,8.72-18.49,12.26-31.12,16.43l-27.96,71.13-27.66-70.39c-12.98-4.13-23.88-8.08-31.81-17.56h-2.59l51.79,123.61h20.52l51.8-123.61h-2.64Z"/>
            <rect class="cls-1" width="22.91" height="157.44"/>
            <polygon class="cls-1"
                     points="211.42 157.44 259.55 42.57 234.5 42.57 201.58 122.49 168.66 42.57 143.62 42.57 191.75 157.44 211.42 157.44"/>
            <path class="cls-1"
                  d="M270.62,135.3h-.02s0,58.69,0,58.69c-10.15-8.99-23.9-13.91-39.76-13.91-17.19,0-32.77,5.93-43.88,16.69-11.87,11.51-18.15,27.73-18.15,46.91,0,38.04,24.84,63.6,61.8,63.6,15.2,0,29.39-5.42,39.99-14.78v12.71l22.93,1.02V157.44h0V42.16h-22.91v93.14Zm-39.33,148.59c-18.9,0-39.09-10.56-39.09-40.21,0-19.55,10.27-40.44,39.09-40.44,22.65,0,39.09,16.91,39.09,40.21s-16.07,40.44-39.09,40.44Z"/>
            <path class="cls-1"
                  d="M282.28,0c-8.3,0-14.55,6.21-14.55,14.45s6.26,14.45,14.55,14.45,14.55-6.21,14.55-14.45-6.26-14.45-14.55-14.45Z"/>
            <path class="cls-1"
                  d="M339.19,94.22c0-17.97,12.1-30.64,29.42-30.81,9.6-.09,17.35,2.52,22.42,7.55,4.98,4.93,7.5,12.13,7.5,21.4v65.08h22.91V92.16c0-15.49-5.12-28.55-14.8-37.77-9.39-8.94-22.42-13.67-37.77-13.67-11.53,.17-21.81,3.54-29.89,9.6v-7.74h-22.71v114.87h22.91v-63.22Z"/>
            <path class="cls-1"
                  d="M497.91,158.89c19.88,0,38.69-8.49,49.1-22.15l3.78-4.96-17.24-13.79-3.96,5.25c-5.76,7.63-18.79,12.96-31.69,12.96-14.33,0-29.46-7.8-33.99-25.04h90.2l.57-5.77c1.89-19.24-2.6-35.46-12.99-46.93-10.25-11.31-25.81-17.54-43.8-17.54-15.75,0-30.39,5.95-41.22,16.75-10.99,10.96-17.04,26-17.04,42.34,0,17.31,5.92,32.18,17.11,43.01,10.59,10.24,25.2,15.88,41.15,15.88Zm0-95.89c19.66,0,31.92,9.56,34.45,26.48h-68.44c4.13-16.1,17.09-26.48,33.98-26.48Z"/>
            <path class="cls-1"
                  d="M98.06,41.33c-33.22,0-58.26,25.23-58.26,58.68s25.05,59.09,58.26,59.09c13.55,0,25.66-4.37,35.35-12.57v10.92h22.91v-39.65l-28.56-68.22c-8.54-5.29-18.8-8.24-29.7-8.24Zm27.19,83.87c-6.5,7.32-15.9,11.19-27.19,11.19-20.49,0-35.35-15.3-35.35-36.39s14.87-36.18,35.35-36.18c24.89,0,36.23,18.81,36.23,36.28,0,9.61-3.21,18.53-9.04,25.1Z"/>
        </g>
        <path class="cls-2"
              d="M124.13,307.28h-13.68l-9.67-9.67v-13.68l9.67-9.67h13.68l9.67,9.67v13.68l-9.67,9.67Zm-10.6-7.43h7.52l5.32-5.32v-7.52l-5.32-5.32h-7.52l-5.32,5.32v7.52l5.32,5.32Z"/>
    </g>
</svg>
